<?xml version="1.0" encoding="UTF-8"?>
<svg id="Camada_1" xmlns="http://www.w3.org/2000/svg" version="1.1" viewBox="0 0 1200 800">
  <!-- Generator: Adobe Illustrator 29.1.0, SVG Export Plug-In . SVG Version: 2.1.0 Build 142)  -->
  <defs>
    <style>
      .st0 {
        stroke-width: 1.05px;
      }

      .st0, .st1, .st2, .st3, .st4, .st5, .st6, .st7, .st8, .st9, .st10, .st11, .st12, .st13, .st14, .st15, .st16, .st17, .st18, .st19, .st20, .st21, .st22, .st23, .st24, .st25, .st26, .st27, .st28, .st29, .st30, .st31, .st32, .st33, .st34, .st35, .st36, .st37, .st38, .st39, .st40, .st41, .st42, .st43, .st44, .st45, .st46, .st47, .st48, .st49, .st50, .st51, .st52, .st53, .st54, .st55, .st56, .st57, .st58, .st59, .st60, .st61, .st62, .st63, .st64 {
        stroke-miterlimit: 10;
      }

      .st0, .st2, .st3, .st4, .st5, .st6, .st7, .st8, .st9, .st10, .st11, .st12, .st13, .st15, .st16, .st18, .st20, .st21, .st22, .st23, .st25, .st27, .st28, .st31, .st32, .st33, .st36, .st37, .st39, .st41, .st42, .st43, .st47, .st48, .st49, .st51, .st52, .st53, .st55, .st56, .st57, .st60, .st62, .st63 {
        stroke: #000;
      }

      .st0, .st11, .st16, .st47 {
        fill: #8b0b00;
      }

      .st1 {
        stroke-width: .86px;
      }

      .st1, .st14, .st17, .st19, .st26, .st29, .st34, .st35, .st38, .st40, .st44, .st45, .st46, .st50, .st58, .st59, .st61, .st64 {
        stroke: #fff;
      }

      .st2 {
        stroke-width: 1.71px;
      }

      .st2, .st4, .st8, .st18, .st25, .st27, .st52, .st55, .st63 {
        fill: #00a21f;
      }

      .st3 {
        stroke-width: 3.11px;
      }

      .st3, .st5, .st15, .st20, .st30, .st31, .st39, .st49, .st60 {
        fill: #d00500;
      }

      .st4 {
        stroke-width: .65px;
      }

      .st5 {
        stroke-width: .52px;
      }

      .st6 {
        stroke-width: 2.92px;
      }

      .st6, .st7, .st10, .st12, .st22, .st23, .st24, .st33, .st42, .st43, .st51, .st57 {
        fill: #ffe500;
      }

      .st7, .st9, .st15, .st45, .st52 {
        stroke-width: 1.01px;
      }

      .st8 {
        stroke-width: 1.09px;
      }

      .st9, .st13, .st21, .st32, .st36, .st41, .st53, .st56 {
        fill: #8b3200;
      }

      .st10 {
        stroke-width: 3.14px;
      }

      .st11 {
        stroke-width: .68px;
      }

      .st12 {
        stroke-width: 1.79px;
      }

      .st13 {
        stroke-width: .7px;
      }

      .st14 {
        stroke-width: 2.16px;
      }

      .st16 {
        stroke-width: .77px;
      }

      .st17 {
        fill: #00450f;
        stroke-width: .54px;
      }

      .st18 {
        stroke-width: 1.79px;
      }

      .st19 {
        fill: #e72000;
        stroke-width: .53px;
      }

      .st20 {
        stroke-width: 1.08px;
      }

      .st21 {
        stroke-width: 1.38px;
      }

      .st22 {
        stroke-width: .58px;
      }

      .st23 {
        stroke-width: .72px;
      }

      .st24 {
        stroke-width: .6px;
      }

      .st24, .st54 {
        stroke: #c6d300;
      }

      .st25 {
        stroke-width: .89px;
      }

      .st26 {
        stroke-width: 2.12px;
      }

      .st27 {
        stroke-width: 1.32px;
      }

      .st28 {
        stroke-width: 7.29px;
      }

      .st29 {
        stroke-width: .96px;
      }

      .st30 {
        stroke: #00450b;
        stroke-width: 1.14px;
      }

      .st31, .st55, .st56 {
        stroke-width: .86px;
      }

      .st32 {
        stroke-width: 2.28px;
      }

      .st33 {
        stroke-width: .93px;
      }

      .st34 {
        stroke-width: 1.19px;
      }

      .st34, .st38, .st40, .st50, .st58, .st59, .st64 {
        fill: #a27200;
      }

      .st35 {
        stroke-width: 2.82px;
      }

      .st36 {
        stroke-width: .69px;
      }

      .st37 {
        stroke-width: 1.6px;
      }

      .st38 {
        stroke-width: .67px;
      }

      .st39 {
        stroke-width: .97px;
      }

      .st40 {
        stroke-width: 1.17px;
      }

      .st41 {
        stroke-width: .78px;
      }

      .st42 {
        stroke-width: 1.08px;
      }

      .st43 {
        stroke-width: .71px;
      }

      .st44 {
        stroke-width: 1.63px;
      }

      .st46 {
        fill: #d0c700;
      }

      .st46, .st64 {
        stroke-width: .44px;
      }

      .st47 {
        stroke-width: .88px;
      }

      .st48 {
        stroke-width: 1.11px;
      }

      .st49, .st54 {
        stroke-width: .49px;
      }

      .st50 {
        stroke-width: .63px;
      }

      .st51 {
        stroke-width: 1.41px;
      }

      .st53 {
        stroke-width: 1.08px;
      }

      .st57 {
        stroke-width: .56px;
      }

      .st58 {
        stroke-width: 3.6px;
      }

      .st59 {
        stroke-width: .65px;
      }

      .st60 {
        stroke-width: 1.48px;
      }

      .st61 {
        stroke-width: .74px;
      }

      .st62 {
        stroke-width: 1.16px;
      }

      .st63 {
        stroke-width: .83px;
      }
    </style>
  </defs>
  <rect class="st50" x="421.94" y="297.88" width="91.29" height="79.16"/>
  <rect class="st28" x="205" y="158.1" width="840.56" height="422.4"/>
  <rect class="st45" x="5" y="8.12" width="63" height="143"/>
  <rect class="st24" x="72.13" y="5" width="162" height="53"/>
  <rect class="st36" x="305" y="10.9" width="86" height="117"/>
  <rect class="st5" x="518.51" y="17.76" width="102.9" height="58.78" transform="translate(1139.91 94.3) rotate(180)"/>
  <rect class="st30" x="5" y="172.05" width="88.5" height="143.9"/>
  <rect class="st42" x="4" y="326" width="163" height="122"/>
  <rect class="st61" x="696.01" y="14.59" width="112.62" height="112.62"/>
  <rect class="st33" x="814" y="12" width="48.62" height="111.83"/>
  <rect class="st41" x="871.75" y="11.69" width="137.5" height="114"/>
  <rect class="st29" x="1018.06" y="14.9" width="48.12" height="112"/>
  <rect class="st63" x="1073.12" y="15.4" width="116" height="111"/>
  <rect class="st34" x="425.25" y="252.31" width="365.29" height="54.3"/>
  <rect class="st51" x="195.62" y="616.12" width="56.75" height="103" transform="translate(891.62 443.62) rotate(90)"/>
  <rect class="st39" x="384" y="740.5" width="344" height="49.25"/>
  <rect class="st43" x="1069.62" y="756" width="123" height="33.75"/>
  <rect class="st7" x="1079.14" y="148.5" width="56" height="82"/>
  <rect class="st20" x="1145.38" y="143" width="46.75" height="183"/>
  <rect class="st49" x="16" y="725" width="182" height="31"/>
  <rect class="st54" x="16" y="769" width="182" height="25"/>
  <rect class="st57" x="627.43" y="12.44" width="62.2" height="112.5"/>
  <rect class="st50" x="421.71" y="219.33" width="91.29" height="79.16"/>
  <rect class="st55" x="12" y="460.5" width="155" height="64.5"/>
  <rect class="st16" x="176.25" y="135.5" width="21.75" height="491.75"/>
  <rect class="st31" x="121" y="546" width="40" height="40"/>
  <rect class="st56" x="122.5" y="604" width="37" height="46.5"/>
  <rect class="st55" x="120" y="662.5" width="42" height="38"/>
  <rect class="st12" x="1081.5" y="337.46" width="109.5" height="49.54"/>
  <rect class="st58" x="421.94" y="297.88" width="368.6" height="57.96"/>
  <rect class="st18" x="1133" y="402.35" width="56" height="78.36"/>
  <rect class="st3" x="1131.12" y="490" width="59.88" height="128.57"/>
  <rect class="st13" x="72.13" y="64.77" width="68.87" height="59.3"/>
  <rect class="st44" x="63.97" y="206.13" width="141.8" height="68.5" transform="translate(375.26 105.51) rotate(90)"/>
  <rect class="st60" x="240.25" y="12" width="58.75" height="40.94"/>
  <rect class="st37" x="552.53" y="55.82" width="34.85" height="101.17" transform="translate(676.37 -463.55) rotate(90)"/>
  <rect class="st2" x="395.06" y="9.98" width="117.42" height="117.42" transform="translate(385.08 522.46) rotate(-90)"/>
  <rect class="st40" x="425.25" y="355.84" width="365.81" height="104.66"/>
  <rect class="st14" x="384" y="632" width="36.5" height="99"/>
  <rect class="st6" x="432.3" y="630.33" width="69" height="95.75"/>
  <rect class="st26" x="513.1" y="630.33" width="36.5" height="95.75"/>
  <rect class="st21" x="200.38" y="716.11" width="79.75" height="70.5" transform="translate(991.61 511.11) rotate(90)"/>
  <rect class="st27" x="290.92" y="632" width="80.66" height="153.42"/>
  <rect class="st25" x="558.12" y="625.62" width="304.5" height="99"/>
  <rect class="st45" x="743.5" y="742.71" width="47.04" height="47.04"/>
  <rect class="st52" x="806" y="740.5" width="30" height="53.5"/>
  <rect class="st15" x="849" y="742.71" width="110" height="51.29"/>
  <rect class="st1" x="880" y="622" width="24" height="101"/>
  <rect class="st23" x="909.5" y="622" width="62" height="109"/>
  <rect class="st8" x="975" y="740.5" width="18" height="53.25"/>
  <rect class="st53" x="998" y="708.71" width="62" height="85.29"/>
  <rect class="st7" x="1060" y="632" width="131" height="64"/>
  <rect class="st52" x="1081.5" y="706.75" width="109.5" height="41.25"/>
  <rect class="st48" x="1075.26" y="399" width="52.25" height="95.72"/>
  <rect class="st32" x="1081.07" y="511.36" width="39.86" height="104"/>
  <rect class="st62" x="980.5" y="622" width="74" height="74"/>
  <rect class="st4" x="196.37" y="26.5" width="55.25" height="135.83" transform="translate(318.42 -129.58) rotate(90)"/>
  <rect class="st47" x="623.8" y="-283.92" width="16.24" height="853.85" transform="translate(774.92 -488.92) rotate(90)"/>
  <rect class="st0" x="610.05" y="186.95" width="23.9" height="834" transform="translate(1225.95 -18.05) rotate(90)"/>
  <rect class="st11" x="1053.05" y="156.34" width="18.6" height="450.08" transform="translate(2124.7 762.75) rotate(180)"/>
  <rect class="st9" x="1080.76" y="242.98" width="56" height="82"/>
  <rect class="st50" x="699.77" y="299.17" width="91.29" height="79.16"/>
  <rect class="st50" x="512.48" y="219.33" width="91.29" height="79.16"/>
  <rect class="st50" x="603.77" y="380.74" width="91.29" height="79.16"/>
  <rect class="st50" x="697.85" y="380.74" width="91.29" height="79.16"/>
  <rect class="st50" x="512.48" y="291.65" width="91.29" height="79.16"/>
  <rect class="st59" x="690.71" y="219.33" width="98.43" height="79.16"/>
  <rect class="st50" x="603.77" y="219.33" width="91.29" height="79.16"/>
  <rect class="st50" x="418.25" y="295.41" width="91.29" height="79.16"/>
  <rect class="st50" x="603.77" y="300.04" width="91.29" height="79.16"/>
  <rect class="st38" x="517.85" y="368.61" width="91.29" height="91.29"/>
  <rect class="st46" x="502.41" y="297.63" width="61.4" height="56.75"/>
  <rect class="st46" x="493.9" y="343.19" width="61.4" height="56.75"/>
  <rect class="st46" x="531.35" y="273.77" width="61.4" height="56.75"/>
  <rect class="st64" x="569.3" y="331.58" width="61.4" height="56.75"/>
  <rect class="st46" x="592.92" y="273.77" width="61.4" height="56.75"/>
  <rect class="st46" x="551.3" y="350.82" width="61.4" height="56.75"/>
  <rect class="st46" x="620.11" y="322.45" width="61.4" height="56.75"/>
  <rect class="st46" x="609.14" y="349.95" width="61.4" height="56.75"/>
  <rect class="st46" x="562.22" y="309.24" width="61.4" height="56.75"/>
  <rect class="st50" x="421.94" y="377.12" width="91.29" height="79.16"/>
  <rect class="st17" x="639.29" y="297.66" width="41.04" height="27.26"/>
  <rect class="st19" x="521.57" y="346.57" width="39.38" height="26.77"/>
  <rect class="st10" x="13.25" y="543.33" width="46.5" height="164.59"/>
  <rect class="st35" x="72.13" y="537.5" width="36.5" height="169.25"/>
  <rect class="st22" x="72.13" y="130.34" width="78.94" height="36.31"/>
  <rect class="st17" x="532.55" y="329.56" width="41.04" height="27.26"/>
  <rect class="st17" x="618.77" y="376.73" width="41.04" height="27.26"/>
  <rect class="st17" x="548.78" y="279.35" width="41.04" height="27.26"/>
  <rect class="st19" x="532.86" y="291.76" width="39.38" height="26.77"/>
  <rect class="st19" x="620.15" y="316.17" width="39.38" height="26.77"/>
  <rect class="st19" x="600.42" y="367.36" width="39.38" height="26.77"/>
</svg>